<svg
    xmlns="http://www.w3.org/2000/svg"
    viewBox="0 0 50 50"
    id="vector">
    <path
        id="path"
        d="M 25 24.8 M 9.4 24.8 C 9.4 20.664 11.045 16.694 13.969 13.769 C 16.894 10.845 20.864 9.2 25 9.2 C 29.136 9.2 33.106 10.845 36.031 13.769 C 38.955 16.694 40.6 20.664 40.6 24.8 C 40.6 28.936 38.955 32.906 36.031 35.831 C 33.106 38.755 29.136 40.4 25 40.4 C 20.864 40.4 16.894 38.755 13.969 35.831 C 11.045 32.906 9.4 28.936 9.4 24.8"
        fill="#00000000"
        stroke="#4d4d4d"
        stroke-width="1.5"
        stroke-linecap="round"
        stroke-linejoin="round"/>
    <path
        id="path_1"
        d="M 31 30.6 C 24.4 30.6 19 25.2 19 18.6 C 19 17 19.3 15.5 19.9 14.1 C 16 16.1 13.3 20.1 13.3 24.8 C 13.3 31.4 18.7 36.8 25.3 36.8 C 30.3 36.8 34.7 33.7 36.4 29.3 C 34.8 30.1 33 30.6 31 30.6 Z"
        fill="#fcb815"
        stroke="#4d4d4d"
        stroke-width="1.5"
        stroke-linecap="round"
        stroke-linejoin="round"/>
    <path
        id="path_2"
        d="M 25 1.3 L 25 5.3"
        fill="#ffffff"
        stroke="#4d4d4d"
        stroke-width="2"
        stroke-linecap="round"
        stroke-linejoin="round"/>
    <path
        id="path_3"
        d="M 25 45.2 L 25 48.2"
        fill="#ffffff"
        stroke="#4d4d4d"
        stroke-width="2"
        stroke-linecap="round"
        stroke-linejoin="round"/>
    <path
        id="path_4"
        d="M 41.6 8.2 L 38.7 11"
        fill="#ffffff"
        stroke="#4d4d4d"
        stroke-width="2"
        stroke-linecap="round"
        stroke-linejoin="round"/>
    <path
        id="path_5"
        d="M 10.6 39.2 L 8.4 41.3"
        fill="#ffffff"
        stroke="#4d4d4d"
        stroke-width="2"
        stroke-linecap="round"
        stroke-linejoin="round"/>
    <path
        id="path_6"
        d="M 48.4 24.8 L 44.4 24.8"
        fill="#ffffff"
        stroke="#4d4d4d"
        stroke-width="2"
        stroke-linecap="round"
        stroke-linejoin="round"/>
    <path
        id="path_7"
        d="M 4.6 24.8 L 1.6 24.8"
        fill="#ffffff"
        stroke="#4d4d4d"
        stroke-width="2"
        stroke-linecap="round"
        stroke-linejoin="round"/>
    <path
        id="path_8"
        d="M 41.6 41.3 L 38.7 38.5"
        fill="#ffffff"
        stroke="#4d4d4d"
        stroke-width="2"
        stroke-linecap="round"
        stroke-linejoin="round"/>
    <path
        id="path_9"
        d="M 10.6 10.3 L 8.4 8.2"
        fill="#ffffff"
        stroke="#4d4d4d"
        stroke-width="2"
        stroke-linecap="round"
        stroke-linejoin="round"/>
</svg>
